<?xml version="1.0" encoding="UTF-8"?>
<svg id="Layer_1" data-name="Layer 1" xmlns="http://www.w3.org/2000/svg" viewBox="0 0 304.28 136.43">
  <defs>
    <style>
      .cls-1 {
        fill: #fff;
        stroke-width: 0px;
      }
    </style>
  </defs>
  <path class="cls-1" d="m175.25,79.23c1.29,0,2.26-.31,2.92-.94.66-.63.98-1.36.98-2.22s-.11-1.64-.33-2.35l-.36-.92-.33-1.01c-.22-.89-.33-2.52-.33-4.88,0-6.51-.39-10.61-1.18-12.3-.79-1.69-1.86-2.95-3.22-3.8-1.36-.84-2.94-1.27-4.74-1.27s-3.7.5-5.7,1.5c-2.01,1-3.18,1.5-3.53,1.5s-1.01-.24-1.99-.73c-.98-.49-1.96-.9-2.92-1.25-.96-.35-2.07-.52-3.31-.52s-2.56.2-3.96.6c-1.4.4-2.54.59-3.42.59s-1.99-.14-3.32-.43c-1.33-.29-2.44-.43-3.32-.43s-1.51.22-1.89.66c-.38.44-.57.88-.57,1.34s.09,1.23.27,2.32l.15,1.01c.14,1.35.21,3.9.21,7.65s-.02,5.95-.06,6.6c-.04.65-.22,1.53-.54,2.67-.32,1.13-.48,1.93-.48,2.38v1.07c0,.95.37,1.71,1.1,2.26.73.56,1.85.83,3.35.83s2.61-.31,3.34-.92c.72-.61,1.09-1.76,1.09-3.43l-.3-8.16c0-4.53.27-7.31.8-8.34.54-1.03,1.27-1.8,2.19-2.31.92-.51,1.68-.76,2.28-.76,1.69,0,2.88.69,3.59,2.07.7,1.38,1.06,4.05,1.06,8s-.04,6.22-.12,6.82l-.39,2.08-.15,1.07-.03,1.13c0,1.81,1.16,2.71,3.48,2.71s3.89-.24,4.71-.73c.81-.49,1.22-1.59,1.22-3.32,0-.24-.17-1.14-.49-2.71-.33-1.57-.49-2.88-.49-3.93,0-5.1.2-8.26.6-9.47.4-1.21,1-2.05,1.8-2.53.8-.48,1.62-.71,2.44-.71s1.47.11,1.95.33c.87.4,1.56,1.22,2.07,2.47.51,1.25.76,4.51.76,9.79s.1,8.2.3,8.77c.5,1.43,1.74,2.14,3.72,2.14h1.07Z"/>
  <path class="cls-1" d="m184.95,76.37c1.09,1.13,2.57,2.07,4.42,2.81,1.85.74,4.01,1.12,6.45,1.12h.68c2.24,0,4.56-.51,6.96-1.52,2.39-1.01,3.59-2.08,3.59-3.19,0-1.75-.55-2.62-1.64-2.62-.89,0-2.13.26-3.72.77-1.59.52-2.9.77-3.93.77-2.68,0-4.74-.54-6.19-1.61-1.45-1.07-2.17-2.55-2.17-4.44,0-1.43,2.39-2.14,7.16-2.14s7.99-.33,9.63-.98c1.31-.52,1.97-1.78,1.97-3.78v-.65c0-1.39-.29-2.87-.86-4.44-1.15-3.14-3.21-5.24-6.17-6.31-1.53-.56-3-.83-4.41-.83h-1.4c-2.07,0-4.03.38-5.9,1.15-1.87.77-3.43,1.86-4.68,3.29-2.36,2.7-3.54,6.39-3.54,11.08v.72c0,2.3.35,4.4,1.06,6.28.7,1.89,1.6,3.39,2.7,4.53Zm4.2-15.82c0-1.59.57-3.03,1.7-4.32,1.13-1.29,2.53-1.94,4.2-1.94h.89c1.21,0,2.33.45,3.37,1.36,1.03.9,1.55,1.93,1.55,3.08,0,.1.02.27.06.51v.33l.03.18v.18c0,1.13-.59,1.7-1.79,1.7l-.63.06-5.45.3-.15.03h-1.88l-.74-.09c-.77,0-1.16-.3-1.16-.89v-.48Z"/>
  <path class="cls-1" d="m214.22,79.17c1.79.63,4.51.95,8.16.95h.8c3.24,0,5.96-1.04,8.16-3.13,1.63-1.53,2.44-3.51,2.44-5.96s-.85-4.45-2.56-6.02c-1.27-1.15-3.43-2.28-6.48-3.38-3.05-1.1-4.78-1.79-5.2-2.07-1.13-.76-1.7-1.7-1.7-2.83,0-.61.33-1.21,1-1.77.67-.57,1.66-.85,2.99-.85s2.95.42,4.87,1.27c1.92.84,3.18,1.27,3.78,1.27s1.11-.31,1.5-.92c.38-.6.57-1.38.57-2.35,0-2.9-3.56-4.35-10.69-4.35-3.38,0-6.08.82-8.1,2.47-2.03,1.65-3.04,3.68-3.04,6.11s.83,4.42,2.5,5.99c1.13,1.07,3.14,2.14,6.02,3.19,2.88,1.05,4.53,1.7,4.94,1.94,1.55.88,2.32,1.84,2.32,2.9s-.4,1.89-1.21,2.47c-.8.59-1.93.88-3.37.88s-3.2-.51-5.27-1.52c-2.08-1.01-3.53-1.52-4.36-1.52-.32,0-.68.25-1.1.76-.42.51-.63,1.23-.63,2.16v.69c0,1.57,1.21,2.78,3.63,3.63Z"/>
  <path class="cls-1" d="m252.49,78.77c1.08-.57,1.62-1.25,1.62-2.07v-.48c0-.89-.39-1.54-1.16-1.94-.1-.04-.91-.17-2.43-.4-1.52-.23-2.51-.67-2.96-1.33-.74-1.05-1.1-3.41-1.1-7.09v-1.76c0-.56,0-1.04.03-1.46l.03-.63c0-3.02.22-4.86.65-5.53.44-.66,1.38-1.16,2.83-1.47,1.45-.32,2.42-.67,2.92-1.04.5-.38.74-1.04.74-2s-.82-1.64-2.46-2.07c-1.64-.43-2.72-.94-3.23-1.53-.52-.6-.92-1.64-1.22-3.13-.3-1.49-.59-2.42-.86-2.8-.54-.71-1.37-1.07-2.5-1.07h-.51c-.87,0-1.54.33-2.01,1-.47.67-.92,1.85-1.37,3.54-.45,1.7-.74,2.65-.89,2.86-.15.21-.55.49-1.21.83-.66.35-1.05.57-1.19.67-.62.42-.92,1.13-.92,2.14s.49,1.85,1.46,2.5c.97.66,1.55,1.33,1.73,2.03.34,1.27.51,4.37.51,9.29s.55,8.31,1.64,10.16c1.43,2.4,3.64,3.61,6.64,3.61h1.22c1.59,0,2.92-.28,4.01-.85Z"/>
  <path class="cls-1" d="m283.92,70.62c.64-2.1.95-4.21.95-6.31v-.54c0-4.35-1.15-7.79-3.45-10.31-2.7-2.94-6.18-4.41-10.43-4.41l-.54-.03c-2.07,0-4.02.34-5.87,1.01-3.67,1.35-6.19,3.92-7.54,7.71-.68,1.93-1.02,3.95-1.04,6.08l-.03.54v.54c0,5.06,1.18,8.84,3.54,11.32,2.76,2.88,6.33,4.32,10.72,4.32h.54c1.87,0,3.75-.43,5.66-1.28,3.77-1.71,6.26-4.59,7.48-8.64Zm-6.91-5.03l-.03.92-.06.63c0,2.24-.58,4.15-1.73,5.73-1.15,1.58-2.65,2.37-4.5,2.37h-.6c-2.14,0-3.79-.96-4.94-2.87-1.15-1.92-1.73-4.52-1.73-7.82s.54-5.85,1.64-7.67c1.09-1.82,2.59-2.73,4.5-2.73h.89c1.99,0,3.57.89,4.77,2.68,1.19,1.79,1.79,4.06,1.79,6.82v1.94Z"/>
  <path class="cls-1" d="m215.74,110.44l-.32-1.01c-.21-.89-.32-2.52-.32-4.88,0-6.51-.38-10.61-1.15-12.3-.76-1.69-1.81-2.95-3.13-3.8-1.32-.84-2.86-1.27-4.61-1.27s-3.6.5-5.55,1.5c-1.95,1-3.1,1.5-3.43,1.5s-.99-.24-1.94-.73c-.96-.49-1.9-.9-2.84-1.25-.94-.35-2.01-.52-3.22-.52s-2.49.2-3.85.6c-1.36.4-2.47.6-3.33.6s-1.94-.15-3.23-.43c-1.3-.29-2.37-.43-3.23-.43s-1.47.22-1.84.66c-.37.44-.55.88-.55,1.34s.09,1.23.26,2.32l.15,1.01c.13,1.35.2,3.9.2,7.65s-.02,5.95-.06,6.59c-.04.65-.21,1.53-.52,2.67-.31,1.13-.46,1.92-.46,2.38v1.07c0,.95.36,1.71,1.07,2.26.72.56,1.8.83,3.26.83s2.54-.31,3.25-.92c.7-.61,1.06-1.76,1.06-3.42l-.29-8.16c0-4.53.26-7.3.78-8.34.52-1.03,1.23-1.8,2.13-2.31.9-.51,1.64-.76,2.22-.76,1.64,0,2.81.69,3.49,2.07.69,1.38,1.03,4.05,1.03,8s-.04,6.22-.12,6.82l-.38,2.08-.14,1.07-.03,1.13c0,1.81,1.13,2.71,3.39,2.71s3.79-.24,4.58-.73c.79-.49,1.19-1.59,1.19-3.32,0-.24-.16-1.14-.48-2.71-.32-1.57-.48-2.88-.48-3.93,0-5.1.19-8.26.58-9.47.39-1.21.97-2.05,1.75-2.53.78-.48,1.57-.72,2.38-.72s1.43.11,1.9.33c.85.4,1.52,1.22,2.01,2.47.49,1.25.74,4.51.74,9.78s.1,8.19.29,8.77c.48,1.43,1.69,2.14,3.62,2.14h1.04c1.25,0,2.2-.31,2.84-.94.64-.63.96-1.37.96-2.22s-.11-1.64-.32-2.35l-.35-.92Z"/>
  <path class="cls-1" d="m237.79,87.81c-1.49-.55-2.92-.83-4.29-.83h-1.36c-2.01,0-3.92.38-5.74,1.15-1.82.76-3.33,1.86-4.55,3.29-2.3,2.7-3.45,6.39-3.45,11.08v.72c0,2.3.34,4.4,1.03,6.28.69,1.89,1.56,3.39,2.62,4.53,1.06,1.13,2.5,2.07,4.3,2.81,1.81.74,3.9,1.12,6.27,1.12h.67c2.18,0,4.44-.51,6.77-1.52,2.33-1.01,3.49-2.07,3.49-3.19,0-1.75-.53-2.62-1.59-2.62-.87,0-2.08.26-3.62.77-1.55.52-2.82.77-3.83.77-2.61,0-4.62-.54-6.03-1.61-1.41-1.07-2.12-2.55-2.12-4.44,0-1.43,2.32-2.14,6.97-2.14s7.77-.33,9.38-.98c1.28-.52,1.91-1.78,1.91-3.78v-.66c0-1.39-.28-2.87-.84-4.44-1.12-3.14-3.12-5.24-6-6.31Zm-.17,9.77c0,1.13-.58,1.7-1.74,1.7l-.61.06-5.3.3-.15.03h-1.83l-.72-.09c-.75,0-1.13-.3-1.13-.89v-.48c0-1.59.55-3.03,1.65-4.32,1.1-1.29,2.46-1.94,4.09-1.94h.87c1.18,0,2.27.45,3.28,1.36,1.01.9,1.51,1.93,1.51,3.08,0,.1.02.27.06.51v.33l.03.18v.18Z"/>
  <path class="cls-1" d="m274.99,109.55c-.23-.83-.35-2.15-.35-3.96l-.03-2.56-.06-1.73c0-5.08-.62-8.52-1.85-10.3-1.58-2.24-3.88-3.37-6.9-3.37-1.59,0-3.29.4-5.12,1.21-1.83.8-2.98,1.21-3.46,1.21s-1.21-.33-2.19-.98c-.98-.65-2.08-.98-3.32-.98-2.57,0-3.86.55-3.86,1.64,0,.6.13,1.34.38,2.25.25.9.41,1.63.46,2.17.06.55.09,2.63.09,6.24s-.03,5.98-.09,7.1c-.06,1.12-.28,2.3-.67,3.54-.39,1.24-.58,2.04-.58,2.4v.77c0,1.03.3,1.74.88,2.13.59.39,1.57.58,2.94.58h.78c3.07,0,4.61-.99,4.61-2.98,0-.99-.09-2.21-.26-3.66-.17-1.43-.26-3.94-.26-7.55s.32-5.99.96-7.16c1.04-1.95,2.62-2.92,4.74-2.92s3.56.91,4.33,2.72c.77,1.82,1.16,5.29,1.16,10.41,0,1.73-.05,3.29-.16,4.68-.11,1.39-.16,2.16-.16,2.32,0,1.63.36,2.7,1.07,3.23.71.53,1.87.79,3.48.79s2.77-.18,3.51-.54c.73-.36,1.1-1.23,1.1-2.62,0-.6-.14-1.31-.43-2.14l-.75-1.94Z"/>
  <path class="cls-1" d="m292.99,103.98c4.65,0,7.77-.33,9.38-.98,1.28-.52,1.91-1.78,1.91-3.78v-.66c0-1.39-.28-2.87-.84-4.44-1.12-3.14-3.12-5.24-6-6.31-1.49-.55-2.92-.83-4.29-.83h-1.36c-2.01,0-3.92.38-5.74,1.15-1.82.76-3.33,1.86-4.55,3.29-2.3,2.7-3.45,6.39-3.45,11.08v.72c0,2.3.34,4.4,1.03,6.28.69,1.89,1.56,3.39,2.62,4.53,1.06,1.13,2.5,2.07,4.3,2.81,1.81.74,3.9,1.12,6.27,1.12h.67c2.18,0,4.44-.51,6.77-1.52,2.33-1.01,3.49-2.07,3.49-3.19,0-1.75-.53-2.62-1.59-2.62-.87,0-2.08.26-3.62.77-1.55.52-2.82.77-3.83.77-2.61,0-4.62-.54-6.03-1.61-1.41-1.07-2.12-2.55-2.12-4.44,0-1.43,2.32-2.14,6.97-2.14Zm-7.2-5.3v-.48c0-1.59.55-3.03,1.65-4.32,1.1-1.29,2.46-1.94,4.09-1.94h.87c1.18,0,2.27.45,3.27,1.36,1,.9,1.51,1.93,1.51,3.08,0,.1.02.27.06.51v.33l.03.18v.18c0,1.13-.58,1.7-1.74,1.7l-.61.06-5.3.3-.14.03h-1.83l-.72-.09c-.75,0-1.13-.3-1.13-.89Z"/>
  <path class="cls-1" d="m146.64,104.02c-.1,0-.35.04-1.99.5-1.13.32-2.21.48-3.23.48-1.15,0-1.3-.18-1.31-.18,0-.27.69-1.66,5.26-7.94.78-1.08,1.35-1.91,1.71-2.48.37-.59.55-1.24.55-1.93,0-.96-.49-1.28-.9-1.38-.31-.07-1.14-.11-2.55-.11h-7.77c-.86,0-1.46.17-1.81.53-.35.35-.52.91-.52,1.65,0,1.38.41,2.08,1.22,2.08.32,0,.98-.13,2.08-.41,1.03-.26,1.85-.39,2.45-.39,1.46,0,1.61.22,1.62.21-.06.17-.62,1.13-3.79,5.6-3.48,4.91-3.88,6.15-3.88,6.66v.38c0,.33.15.91,1.16,1.02.08,0,.33.03,3.88.03h2.58l2.58.05,1.26.02c1.01,0,1.69-.21,2.09-.64.38-.42.57-1.01.57-1.74,0-1.67-.69-2.02-1.27-2.02Z"/>
  <path class="cls-1" d="m164.32,103.55c-.05-.3-.12-1.16-.12-3.61,0-2.04-.07-3.46-.21-4.33-.14-.89-.46-1.69-.95-2.39-1.09-1.6-3.16-2.41-6.14-2.41-1.54,0-2.99.28-4.3.84-1.38.59-2.08,1.35-2.08,2.26,0,.53.15.99.45,1.37.31.4.75.6,1.29.6.51,0,1.33-.26,2.52-.78,1.1-.49,1.95-.74,2.51-.74s.98.11,1.3.34c.54.37.79.88.79,1.55s-.25,1.04-.79,1.22c-.32.1-.91.2-1.75.27-4.88.46-7.36,2.35-7.36,5.62v.4c0,1.45.49,2.64,1.47,3.54.97.9,2.24,1.35,3.78,1.35.91,0,1.92-.21,2.99-.63,1.21-.47,1.53-.58,1.53-.59.39,0,.86.14,1.39.43.6.32,1.3.49,2.09.49,2.05,0,2.49-.9,2.49-1.65v-.35c0-.41-.14-.89-.42-1.44-.25-.49-.42-.95-.49-1.36Zm-4.81-.66s-.01.13-.03.28c0,.42-.22.86-.67,1.31-.45.45-.93.68-1.48.68-.13,0-.29.02-.46.05h-.35s-.5-.05-.5-.05c-.47,0-.87-.19-1.21-.59-.35-.41-.52-.87-.52-1.43v-.4c0-.66.31-1.18.95-1.58.67-.42,1.61-.64,2.82-.64h.24s.06-.02.06-.02h.57c.31,0,.64.1.64.82l-.05,1.57Z"/>
  <path class="cls-1" d="m137.66,32.39c-.04-.28-.51-.48-.6-.53-6.72-3.67-13.46-3.79-18.92.92-7.03,6.06-12.71,33.44-36.38,29.24-16.32-2.9-32.06-16.32-35.46-56.37,0-.09-.06-.17-.08-.25-.39-3.04-2.86-5.39-5.88-5.39-3.29,0-5.96,2.78-5.96,6.22-1.26,14.88,4.95,39.27,17.37,53.86.32.37.4.9.09,1.29-.3.38-.84.46-1.23.16-.23-.18-6.21-4.22-12.77-16.6-3.73-7.05-7.43-14.83-10.13-30.81-.02-.53-.11-1.03-.25-1.51,0-.06-.02-.12-.03-.18-.02-.1-.07-.18-.1-.27-.03-.09-.06-.18-.1-.26-.01-.02-.02-.04-.03-.05-.92-2.11-2.95-3.58-5.32-3.58-3.23,0-5.86,2.73-5.86,6.11,0,.14.03.27.04.41,0,.08-.04.15-.04.22.63,33.79,27.36,58.58,27.57,58.72.4.27.53.81.3,1.24-.23.43-.74.61-1.17.4-.22-.11-20.56-12.76-28.43-40.62-.02-.06-.06-.11-.08-.17-.8-2.23-2.84-3.82-5.25-3.82-3.1,0-5.62,2.62-5.62,5.86,0,.21.04.4.06.61,0,.02-.04.03-.03.05,1.96,27.31,31.4,49.75,31.66,49.96.37.28.48.79.26,1.21-.22.41-.69.6-1.12.42-.62-.25-12.13-5.96-23.95-23.11-.04-.07-.1-.13-.15-.2-.11-.16-.22-.29-.33-.45-.03-.04-.07-.06-.1-.09-1.01-1.13-2.45-1.85-4.05-1.85-3.07,0-5.56,2.59-5.56,5.79,0,1.06.29,2.04.77,2.89.01.03.01.06.02.09,3.41,8.38,17.45,21.79,32.63,32.57.24.17.54.12.81,0,5.88-2.47,8.76-4.12,24.76-7.18,21.07-4.03,30.56-14.17,30.64-14.29.22-.32.63-.47.99-.35.37.11.62.46.65.86.71,11.57-8.46,21.3-20.65,26.94-2.59,1.2-2.71,2.26-2.3,3.37.45,1.21,1.89,1.69,4.86,1.42,17.88-1.63,46.86-25.96,50.45-60.65.09-.89.25-1.75.39-2.59,1.8-11.4,5.05-15.54,13.28-19.05.1-.04.4-.23.35-.57Z"/>
  <path class="cls-1" d="m117.16,84.89c-6.84,10.54-21.69,30.88-43.52,33.65-.75.1-1.44.14-2.1.15h-.03c-1.52,0-2.75-.17-3.76-.52-2.33-.8-3.2-2.28-3.53-3.38-.38-1.3-.72-4.73,4.84-7.5,8.7-4.34,13.56-8.91,17.16-15.05.52-.89-.52-1.85-1.35-1.24-4.6,3.35-12.66,7.3-25.01,9.75-13.52,2.69-20.98,4.31-30.29,10.6-8.41,5.68-12.7,12.87-18.98,24.05l-.14.26c-.29.51.18.94.61.72.32-.16.4-.21.71-.38,12.54-6.51,24.75-5.99,38.65-5.4,3.49.15,7.08.3,10.75.35h.99c37.38.56,48.96-22.07,56.56-45.11.33-1-1.01-1.83-1.58-.95Z"/>
</svg>