<?xml version="1.0" encoding="UTF-8"?>
<svg id="Layer_1" data-name="Layer 1" xmlns="http://www.w3.org/2000/svg" viewBox="0 0 506.31 501.77">
  <defs>
    <style>
      .cls-1 {
        fill: #f37772;
        stroke-width: 0px;
      }
    </style>
  </defs>
  <path class="cls-1" d="m506.29,119.13c-.15-1.03-1.88-1.77-2.22-1.95-24.73-13.48-49.49-13.95-69.58,3.37-25.86,22.3-46.74,123-133.82,107.54-60.04-10.66-117.9-60.02-130.42-207.33-.03-.33-.2-.62-.29-.93-1.44-11.18-10.53-19.83-21.64-19.83-12.11,0-21.93,10.24-21.93,22.87-4.63,54.73,18.21,144.43,63.89,198.1,1.17,1.38,1.46,3.32.34,4.75-1.11,1.41-3.11,1.69-4.53.6-.85-.66-22.84-15.51-46.98-61.06-13.73-25.91-27.34-54.55-37.25-113.31-.08-1.94-.42-3.78-.93-5.56-.04-.22-.07-.43-.11-.65-.06-.37-.26-.66-.38-.99-.12-.32-.23-.65-.37-.97-.04-.06-.06-.13-.1-.19-3.4-7.74-10.85-13.15-19.56-13.15-11.9,0-21.54,10.05-21.54,22.46,0,.51.11.99.14,1.49-.03.28-.15.55-.14.83,2.3,124.29,100.64,215.47,101.38,215.96,1.46.99,1.95,2.98,1.11,4.58-.84,1.59-2.72,2.23-4.3,1.47-.81-.39-75.63-46.94-104.57-149.4-.07-.23-.2-.42-.29-.64-2.93-8.2-10.44-14.06-19.32-14.06-11.42,0-20.68,9.65-20.68,21.56,0,.77.14,1.49.22,2.23-.03.06-.13.12-.13.17,7.2,100.45,115.47,182.99,116.45,183.73,1.35,1.03,1.75,2.92.95,4.45-.8,1.52-2.55,2.19-4.1,1.56-2.3-.92-44.62-21.9-88.1-84.99-.16-.26-.36-.49-.54-.74-.41-.58-.81-1.08-1.22-1.67-.1-.14-.26-.21-.37-.34-3.73-4.17-9.01-6.82-14.91-6.82-11.29,0-20.44,9.54-20.44,21.31,0,3.9,1.08,7.5,2.83,10.65.04.1.04.22.09.32,12.55,30.82,64.2,80.14,120.03,119.78.88.63,1.98.43,2.98,0,21.64-9.1,32.23-15.14,91.05-26.39,77.49-14.82,112.38-52.1,112.7-52.57.82-1.19,2.31-1.71,3.63-1.3,1.35.41,2.29,1.68,2.38,3.14,2.6,42.56-31.12,78.34-75.93,99.07-9.54,4.41-9.96,8.32-8.45,12.38,1.65,4.44,6.94,6.22,17.89,5.22,65.77-5.99,172.35-95.47,185.54-223.07.34-3.27.93-6.42,1.42-9.51,6.63-41.93,18.59-57.14,48.85-70.06.38-.16,1.48-.83,1.29-2.08Z"/>
  <path class="cls-1" d="m430.91,312.22c-25.15,38.75-79.77,113.58-160.04,123.77-2.75.35-5.3.5-7.74.54h-.1c-5.59,0-10.1-.62-13.83-1.91-8.57-2.95-11.78-8.39-12.97-12.44-1.4-4.78-2.63-17.39,17.82-27.6,32.01-15.98,49.86-32.78,63.12-55.35,1.91-3.26-1.92-6.81-4.97-4.58-16.9,12.34-46.56,26.84-91.99,35.84-49.73,9.9-77.15,15.86-111.41,38.99-30.95,20.9-46.7,47.32-69.81,88.46l-.53.96c-1.07,1.89.66,3.46,2.25,2.66,1.19-.6,1.46-.79,2.63-1.39,46.13-23.93,91.02-22.02,142.17-19.85,12.84.55,26.03,1.11,39.54,1.3l3.65.03c137.5,2.04,180.08-81.21,208.04-165.93,1.21-3.66-3.71-6.72-5.81-3.48Z"/>
</svg>